<?xml version="1.0" encoding="utf-8"?>
<!-- Generator: Adobe Illustrator 19.0.0, SVG Export Plug-In . SVG Version: 6.00 Build 0)  -->
<svg version="1.1" id="Livello_1" xmlns="http://www.w3.org/2000/svg" xmlns:xlink="http://www.w3.org/1999/xlink" x="0px" y="0px"
	 viewBox="0 0 575 585.6" style="enable-background:new 0 0 575 585.6;" xml:space="preserve">
<style type="text/css">
	.st0{fill:none;stroke:#4E445F;stroke-width:0.5;stroke-miterlimit:10;}
	.st1{fill:#F599CF;stroke:#4E445F;stroke-width:0.5;stroke-miterlimit:10;}
	.st2{fill:#99CFD6;stroke:#4E445F;stroke-width:0.5;stroke-miterlimit:10;}
	.st3{fill:#99CCAC;stroke:#4E445F;stroke-width:0.5;stroke-miterlimit:10;}
	.st4{fill:#FFA28C;stroke:#4E445F;stroke-width:0.5;stroke-miterlimit:10;}
	.st5{fill:#B8A0E0;stroke:#4E445F;stroke-width:0.5;stroke-miterlimit:10;}
	.st6{fill:#F0BB66;stroke:#4E445F;stroke-width:0.5;stroke-miterlimit:10;}
	.st7{fill:#FFEE9E;stroke:#4E445F;stroke-width:0.5;stroke-miterlimit:10;}
</style>
<rect id="XMLID_29_" x="25.9" y="4.3" class="st0" width="523.3" height="577"/>
<rect id="XMLID_48_" x="25.9" y="4.3" class="st1" width="150.7" height="577"/>
<rect id="XMLID_63_" x="158.2" y="4.3" class="st2" width="212.9" height="572.7"/>
<path id="XMLID_31_" class="st3" d="M287.5,581.3c0,0-25.1-52.2-98-125.1S25.9,392.7,25.9,392.7v188.6H287.5z"/>
<path id="XMLID_32_" class="st4" d="M25.9,581.3c0,0,296.5-250.9,397.6-250.9h125.6v250.9H25.9z"/>
<path id="XMLID_33_" class="st5" d="M25.9,4.3v208.5L248.3,63.5c0,0,24.7,5.9,63.5-9.4s38.8-49.8,38.8-49.8H25.9z"/>
<path id="XMLID_30_" class="st6" d="M549.1,446.8c0,0-259.7-101.1-292.6-203.4S193.1,4.3,193.1,4.3h356.1V446.8z"/>
<path id="XMLID_34_" class="st7" d="M238.9,4.3c0,0,11.8,100.8,64.7,141.7s245.6,33.9,245.6,33.9V4.3H238.9z"/>
</svg>
